<mxfile host="app.diagrams.net" modified="2022-10-08T10:39:57.612Z" agent="5.0 (Windows NT 10.0; Win64; x64) AppleWebKit/537.36 (KHTML, like Gecko) Chrome/106.0.0.0 Safari/537.36 Edg/106.0.1370.34" etag="yBdT1R64DpV6nIRSipLK" version="20.4.0" type="github">
  <diagram id="C5RBs43oDa-KdzZeNtuy" name="Page-1">
    <mxGraphModel dx="812" dy="454" grid="1" gridSize="10" guides="1" tooltips="1" connect="1" arrows="1" fold="1" page="1" pageScale="1" pageWidth="827" pageHeight="1169" math="0" shadow="0">
      <root>
        <mxCell id="WIyWlLk6GJQsqaUBKTNV-0" />
        <mxCell id="WIyWlLk6GJQsqaUBKTNV-1" parent="WIyWlLk6GJQsqaUBKTNV-0" />
        <mxCell id="J51_Tm1h9DYmSotQYTxs-37" value="" style="edgeStyle=orthogonalEdgeStyle;rounded=0;orthogonalLoop=1;jettySize=auto;html=1;" parent="WIyWlLk6GJQsqaUBKTNV-1" source="Q51yoFxDo951dQZPsv_r-0" target="J51_Tm1h9DYmSotQYTxs-36" edge="1">
          <mxGeometry relative="1" as="geometry" />
        </mxCell>
        <mxCell id="J51_Tm1h9DYmSotQYTxs-73" style="edgeStyle=orthogonalEdgeStyle;rounded=0;orthogonalLoop=1;jettySize=auto;html=1;exitX=0.25;exitY=1;exitDx=0;exitDy=0;entryX=1;entryY=0.5;entryDx=0;entryDy=0;" parent="WIyWlLk6GJQsqaUBKTNV-1" source="Q51yoFxDo951dQZPsv_r-0" target="J51_Tm1h9DYmSotQYTxs-27" edge="1">
          <mxGeometry relative="1" as="geometry" />
        </mxCell>
        <mxCell id="Q51yoFxDo951dQZPsv_r-0" value="&lt;div&gt;GEBCO&lt;/div&gt;" style="shape=parallelogram;perimeter=parallelogramPerimeter;whiteSpace=wrap;html=1;fixedSize=1;fillColor=#e1d5e7;strokeColor=#9673a6;" parent="WIyWlLk6GJQsqaUBKTNV-1" vertex="1">
          <mxGeometry x="495" y="20" width="105" height="30" as="geometry" />
        </mxCell>
        <mxCell id="LHAwC66H7p6stEp5_sUE-17" style="edgeStyle=orthogonalEdgeStyle;rounded=0;orthogonalLoop=1;jettySize=auto;html=1;exitX=0.5;exitY=1;exitDx=0;exitDy=0;entryX=0.5;entryY=0;entryDx=0;entryDy=0;" edge="1" parent="WIyWlLk6GJQsqaUBKTNV-1" source="Q51yoFxDo951dQZPsv_r-1" target="J51_Tm1h9DYmSotQYTxs-27">
          <mxGeometry relative="1" as="geometry" />
        </mxCell>
        <mxCell id="Q51yoFxDo951dQZPsv_r-1" value="ICESat-2" style="shape=parallelogram;perimeter=parallelogramPerimeter;whiteSpace=wrap;html=1;fixedSize=1;fillColor=#e1d5e7;strokeColor=#9673a6;" parent="WIyWlLk6GJQsqaUBKTNV-1" vertex="1">
          <mxGeometry x="250" y="20" width="110" height="30" as="geometry" />
        </mxCell>
        <mxCell id="LHAwC66H7p6stEp5_sUE-23" style="edgeStyle=orthogonalEdgeStyle;rounded=0;orthogonalLoop=1;jettySize=auto;html=1;exitX=0.5;exitY=1;exitDx=0;exitDy=0;entryX=0.5;entryY=0;entryDx=0;entryDy=0;" edge="1" parent="WIyWlLk6GJQsqaUBKTNV-1" source="J51_Tm1h9DYmSotQYTxs-2" target="J51_Tm1h9DYmSotQYTxs-63">
          <mxGeometry relative="1" as="geometry" />
        </mxCell>
        <mxCell id="J51_Tm1h9DYmSotQYTxs-2" value="&lt;div&gt;Bathymetry&amp;nbsp;&lt;span style=&quot;background-color: initial;&quot;&gt;points&lt;/span&gt;&lt;/div&gt;" style="shape=parallelogram;perimeter=parallelogramPerimeter;whiteSpace=wrap;html=1;fixedSize=1;fillColor=#dae8fc;strokeColor=#6c8ebf;" parent="WIyWlLk6GJQsqaUBKTNV-1" vertex="1">
          <mxGeometry x="240" y="175" width="130" height="15" as="geometry" />
        </mxCell>
        <mxCell id="LHAwC66H7p6stEp5_sUE-18" style="edgeStyle=orthogonalEdgeStyle;rounded=0;orthogonalLoop=1;jettySize=auto;html=1;exitX=0.5;exitY=1;exitDx=0;exitDy=0;entryX=0.5;entryY=0;entryDx=0;entryDy=0;" edge="1" parent="WIyWlLk6GJQsqaUBKTNV-1" source="J51_Tm1h9DYmSotQYTxs-27" target="LHAwC66H7p6stEp5_sUE-9">
          <mxGeometry relative="1" as="geometry" />
        </mxCell>
        <mxCell id="J51_Tm1h9DYmSotQYTxs-27" value="Subsurface Filtering" style="whiteSpace=wrap;html=1;" parent="WIyWlLk6GJQsqaUBKTNV-1" vertex="1">
          <mxGeometry x="250" y="69" width="110" height="20" as="geometry" />
        </mxCell>
        <mxCell id="LHAwC66H7p6stEp5_sUE-22" style="edgeStyle=orthogonalEdgeStyle;rounded=0;orthogonalLoop=1;jettySize=auto;html=1;exitX=0.5;exitY=1;exitDx=0;exitDy=0;entryX=0.5;entryY=0;entryDx=0;entryDy=0;" edge="1" parent="WIyWlLk6GJQsqaUBKTNV-1" source="J51_Tm1h9DYmSotQYTxs-29" target="J51_Tm1h9DYmSotQYTxs-2">
          <mxGeometry relative="1" as="geometry" />
        </mxCell>
        <mxCell id="J51_Tm1h9DYmSotQYTxs-29" value="Signal extraction" style="whiteSpace=wrap;html=1;rounded=0;" parent="WIyWlLk6GJQsqaUBKTNV-1" vertex="1">
          <mxGeometry x="255" y="138" width="100" height="20" as="geometry" />
        </mxCell>
        <mxCell id="oKZjMRXjX0TNml7wu_M2-8" style="edgeStyle=orthogonalEdgeStyle;rounded=0;orthogonalLoop=1;jettySize=auto;html=1;exitX=1;exitY=0.25;exitDx=0;exitDy=0;entryX=0;entryY=0.5;entryDx=0;entryDy=0;" parent="WIyWlLk6GJQsqaUBKTNV-1" source="J51_Tm1h9DYmSotQYTxs-17" target="J51_Tm1h9DYmSotQYTxs-35" edge="1">
          <mxGeometry relative="1" as="geometry" />
        </mxCell>
        <mxCell id="oKZjMRXjX0TNml7wu_M2-9" style="edgeStyle=orthogonalEdgeStyle;rounded=0;orthogonalLoop=1;jettySize=auto;html=1;exitX=1;exitY=0.75;exitDx=0;exitDy=0;entryX=0;entryY=0.5;entryDx=0;entryDy=0;" parent="WIyWlLk6GJQsqaUBKTNV-1" source="J51_Tm1h9DYmSotQYTxs-17" target="J51_Tm1h9DYmSotQYTxs-34" edge="1">
          <mxGeometry relative="1" as="geometry" />
        </mxCell>
        <mxCell id="J51_Tm1h9DYmSotQYTxs-17" value="&lt;div&gt;Kalman &lt;br&gt;&lt;/div&gt;&lt;div&gt;Update&lt;/div&gt;" style="rounded=0;whiteSpace=wrap;html=1;" parent="WIyWlLk6GJQsqaUBKTNV-1" vertex="1">
          <mxGeometry x="527.5" y="255" width="72.5" height="35" as="geometry" />
        </mxCell>
        <mxCell id="J51_Tm1h9DYmSotQYTxs-34" value="&lt;div&gt;Updated&amp;nbsp;&lt;/div&gt;&lt;div&gt;&lt;span style=&quot;background-color: initial;&quot;&gt;uncertainty&amp;nbsp;&lt;/span&gt;&lt;span style=&quot;background-color: initial;&quot;&gt;grid&lt;/span&gt;&lt;/div&gt;" style="shape=parallelogram;perimeter=parallelogramPerimeter;whiteSpace=wrap;html=1;fixedSize=1;fillColor=#d5e8d4;strokeColor=#82b366;" parent="WIyWlLk6GJQsqaUBKTNV-1" vertex="1">
          <mxGeometry x="630" y="267.5" width="175" height="32.5" as="geometry" />
        </mxCell>
        <mxCell id="J51_Tm1h9DYmSotQYTxs-35" value="Updated&amp;nbsp;&lt;br&gt;&lt;span style=&quot;background-color: initial;&quot;&gt;bathymetry&lt;/span&gt;&lt;span style=&quot;background-color: initial;&quot;&gt;&amp;nbsp;grid&lt;/span&gt;&lt;span style=&quot;background-color: initial;&quot;&gt;&lt;br&gt;&lt;/span&gt;" style="shape=parallelogram;perimeter=parallelogramPerimeter;whiteSpace=wrap;html=1;fixedSize=1;fillColor=#d5e8d4;strokeColor=#82b366;" parent="WIyWlLk6GJQsqaUBKTNV-1" vertex="1">
          <mxGeometry x="630" y="230" width="175" height="31" as="geometry" />
        </mxCell>
        <mxCell id="J51_Tm1h9DYmSotQYTxs-39" value="" style="edgeStyle=orthogonalEdgeStyle;rounded=0;orthogonalLoop=1;jettySize=auto;html=1;" parent="WIyWlLk6GJQsqaUBKTNV-1" source="J51_Tm1h9DYmSotQYTxs-36" target="J51_Tm1h9DYmSotQYTxs-38" edge="1">
          <mxGeometry relative="1" as="geometry" />
        </mxCell>
        <mxCell id="J51_Tm1h9DYmSotQYTxs-36" value="Bilinear resampling to 50m" style="whiteSpace=wrap;html=1;" parent="WIyWlLk6GJQsqaUBKTNV-1" vertex="1">
          <mxGeometry x="487.5" y="104" width="120" height="40" as="geometry" />
        </mxCell>
        <mxCell id="oKZjMRXjX0TNml7wu_M2-11" value="" style="edgeStyle=orthogonalEdgeStyle;rounded=0;orthogonalLoop=1;jettySize=auto;html=1;" parent="WIyWlLk6GJQsqaUBKTNV-1" source="J51_Tm1h9DYmSotQYTxs-38" target="J51_Tm1h9DYmSotQYTxs-17" edge="1">
          <mxGeometry relative="1" as="geometry" />
        </mxCell>
        <mxCell id="J51_Tm1h9DYmSotQYTxs-38" value="Reprojection to local UTM zone" style="whiteSpace=wrap;html=1;" parent="WIyWlLk6GJQsqaUBKTNV-1" vertex="1">
          <mxGeometry x="487.5" y="170" width="120" height="40" as="geometry" />
        </mxCell>
        <mxCell id="J51_Tm1h9DYmSotQYTxs-53" style="edgeStyle=orthogonalEdgeStyle;rounded=0;orthogonalLoop=1;jettySize=auto;html=1;entryX=0;entryY=0.75;entryDx=0;entryDy=0;" parent="WIyWlLk6GJQsqaUBKTNV-1" source="J51_Tm1h9DYmSotQYTxs-14" target="J51_Tm1h9DYmSotQYTxs-17" edge="1">
          <mxGeometry relative="1" as="geometry" />
        </mxCell>
        <mxCell id="J51_Tm1h9DYmSotQYTxs-56" style="edgeStyle=orthogonalEdgeStyle;rounded=0;orthogonalLoop=1;jettySize=auto;html=1;entryX=0;entryY=0.286;entryDx=0;entryDy=0;entryPerimeter=0;" parent="WIyWlLk6GJQsqaUBKTNV-1" source="J51_Tm1h9DYmSotQYTxs-15" target="J51_Tm1h9DYmSotQYTxs-17" edge="1">
          <mxGeometry relative="1" as="geometry" />
        </mxCell>
        <mxCell id="LHAwC66H7p6stEp5_sUE-12" style="edgeStyle=orthogonalEdgeStyle;rounded=0;orthogonalLoop=1;jettySize=auto;html=1;exitX=1;exitY=0.25;exitDx=0;exitDy=0;entryX=0;entryY=0.5;entryDx=0;entryDy=0;" edge="1" parent="WIyWlLk6GJQsqaUBKTNV-1" source="J51_Tm1h9DYmSotQYTxs-9" target="J51_Tm1h9DYmSotQYTxs-15">
          <mxGeometry relative="1" as="geometry" />
        </mxCell>
        <mxCell id="LHAwC66H7p6stEp5_sUE-13" style="edgeStyle=orthogonalEdgeStyle;rounded=0;orthogonalLoop=1;jettySize=auto;html=1;exitX=1;exitY=0.75;exitDx=0;exitDy=0;" edge="1" parent="WIyWlLk6GJQsqaUBKTNV-1" source="J51_Tm1h9DYmSotQYTxs-9" target="J51_Tm1h9DYmSotQYTxs-14">
          <mxGeometry relative="1" as="geometry" />
        </mxCell>
        <mxCell id="J51_Tm1h9DYmSotQYTxs-9" value="&lt;div&gt;Universal&lt;/div&gt;&lt;div&gt;&amp;nbsp;Kriging&lt;/div&gt;" style="rounded=0;whiteSpace=wrap;html=1;" parent="WIyWlLk6GJQsqaUBKTNV-1" vertex="1">
          <mxGeometry x="260" y="273.75" width="90" height="40" as="geometry" />
        </mxCell>
        <mxCell id="J51_Tm1h9DYmSotQYTxs-15" value="&lt;div&gt;Bathymetry&lt;/div&gt;&lt;div&gt;&amp;nbsp;grid&lt;/div&gt;" style="shape=parallelogram;perimeter=parallelogramPerimeter;whiteSpace=wrap;html=1;fixedSize=1;fillColor=#f8cecc;strokeColor=#b85450;" parent="WIyWlLk6GJQsqaUBKTNV-1" vertex="1">
          <mxGeometry x="390" y="238.75" width="105" height="42.5" as="geometry" />
        </mxCell>
        <mxCell id="J51_Tm1h9DYmSotQYTxs-14" value="&lt;div&gt;Uncertainty &lt;br&gt;&lt;/div&gt;&lt;div&gt;grid&lt;/div&gt;" style="shape=parallelogram;perimeter=parallelogramPerimeter;whiteSpace=wrap;html=1;fixedSize=1;fillColor=#f8cecc;strokeColor=#b85450;" parent="WIyWlLk6GJQsqaUBKTNV-1" vertex="1">
          <mxGeometry x="391.25" y="290" width="103.75" height="37.5" as="geometry" />
        </mxCell>
        <mxCell id="LHAwC66H7p6stEp5_sUE-24" style="edgeStyle=orthogonalEdgeStyle;rounded=0;orthogonalLoop=1;jettySize=auto;html=1;exitX=0.5;exitY=1;exitDx=0;exitDy=0;" edge="1" parent="WIyWlLk6GJQsqaUBKTNV-1" source="J51_Tm1h9DYmSotQYTxs-63">
          <mxGeometry relative="1" as="geometry">
            <mxPoint x="305" y="240" as="targetPoint" />
          </mxGeometry>
        </mxCell>
        <mxCell id="J51_Tm1h9DYmSotQYTxs-63" value="&lt;div&gt;Poisson&amp;nbsp;&lt;span style=&quot;background-color: initial;&quot;&gt;disk sampling&lt;/span&gt;&lt;/div&gt;" style="whiteSpace=wrap;html=1;" parent="WIyWlLk6GJQsqaUBKTNV-1" vertex="1">
          <mxGeometry x="235" y="206" width="140" height="20" as="geometry" />
        </mxCell>
        <mxCell id="J51_Tm1h9DYmSotQYTxs-75" value="" style="rounded=0;whiteSpace=wrap;html=1;fillColor=#e1d5e7;strokeColor=#9673a6;" parent="WIyWlLk6GJQsqaUBKTNV-1" vertex="1">
          <mxGeometry x="640" y="90" width="20" height="20" as="geometry" />
        </mxCell>
        <mxCell id="J51_Tm1h9DYmSotQYTxs-76" value="" style="rounded=0;whiteSpace=wrap;html=1;fillColor=#dae8fc;strokeColor=#6c8ebf;" parent="WIyWlLk6GJQsqaUBKTNV-1" vertex="1">
          <mxGeometry x="640" y="120" width="20" height="20" as="geometry" />
        </mxCell>
        <mxCell id="J51_Tm1h9DYmSotQYTxs-78" value="" style="rounded=0;whiteSpace=wrap;html=1;fillColor=#f8cecc;strokeColor=#b85450;" parent="WIyWlLk6GJQsqaUBKTNV-1" vertex="1">
          <mxGeometry x="640" y="150" width="20" height="20" as="geometry" />
        </mxCell>
        <mxCell id="J51_Tm1h9DYmSotQYTxs-79" value="" style="rounded=0;whiteSpace=wrap;html=1;fillColor=#d5e8d4;strokeColor=#82b366;" parent="WIyWlLk6GJQsqaUBKTNV-1" vertex="1">
          <mxGeometry x="640" y="180" width="20" height="20" as="geometry" />
        </mxCell>
        <mxCell id="J51_Tm1h9DYmSotQYTxs-80" value="Input data" style="text;html=1;strokeColor=none;fillColor=none;align=center;verticalAlign=middle;whiteSpace=wrap;rounded=0;" parent="WIyWlLk6GJQsqaUBKTNV-1" vertex="1">
          <mxGeometry x="670" y="90" width="60" height="20" as="geometry" />
        </mxCell>
        <mxCell id="J51_Tm1h9DYmSotQYTxs-81" value="Point data" style="text;html=1;strokeColor=none;fillColor=none;align=center;verticalAlign=middle;whiteSpace=wrap;rounded=0;" parent="WIyWlLk6GJQsqaUBKTNV-1" vertex="1">
          <mxGeometry x="670" y="120" width="60" height="20" as="geometry" />
        </mxCell>
        <mxCell id="J51_Tm1h9DYmSotQYTxs-82" value="Raster data" style="text;html=1;strokeColor=none;fillColor=none;align=center;verticalAlign=middle;whiteSpace=wrap;rounded=0;" parent="WIyWlLk6GJQsqaUBKTNV-1" vertex="1">
          <mxGeometry x="670" y="150" width="70" height="20" as="geometry" />
        </mxCell>
        <mxCell id="J51_Tm1h9DYmSotQYTxs-83" value="Output data" style="text;html=1;strokeColor=none;fillColor=none;align=center;verticalAlign=middle;whiteSpace=wrap;rounded=0;" parent="WIyWlLk6GJQsqaUBKTNV-1" vertex="1">
          <mxGeometry x="670" y="180" width="70" height="20" as="geometry" />
        </mxCell>
        <mxCell id="J51_Tm1h9DYmSotQYTxs-84" value="" style="swimlane;startSize=0;rounded=0;" parent="WIyWlLk6GJQsqaUBKTNV-1" vertex="1">
          <mxGeometry x="630" y="80" width="120" height="130" as="geometry" />
        </mxCell>
        <mxCell id="LHAwC66H7p6stEp5_sUE-19" style="edgeStyle=orthogonalEdgeStyle;rounded=0;orthogonalLoop=1;jettySize=auto;html=1;exitX=0.5;exitY=1;exitDx=0;exitDy=0;entryX=0.5;entryY=0;entryDx=0;entryDy=0;" edge="1" parent="WIyWlLk6GJQsqaUBKTNV-1" source="LHAwC66H7p6stEp5_sUE-9" target="J51_Tm1h9DYmSotQYTxs-29">
          <mxGeometry relative="1" as="geometry" />
        </mxCell>
        <mxCell id="LHAwC66H7p6stEp5_sUE-9" value="&lt;div&gt;Subsurface&lt;span style=&quot;background-color: initial;&quot;&gt;&amp;nbsp;photons&lt;/span&gt;&lt;/div&gt;" style="shape=parallelogram;perimeter=parallelogramPerimeter;whiteSpace=wrap;html=1;fixedSize=1;fillColor=#dae8fc;strokeColor=#6c8ebf;" vertex="1" parent="WIyWlLk6GJQsqaUBKTNV-1">
          <mxGeometry x="238.75" y="104" width="132.5" height="20" as="geometry" />
        </mxCell>
        <mxCell id="LHAwC66H7p6stEp5_sUE-25" style="edgeStyle=orthogonalEdgeStyle;rounded=0;orthogonalLoop=1;jettySize=auto;html=1;exitX=0.5;exitY=1;exitDx=0;exitDy=0;entryX=0.5;entryY=0;entryDx=0;entryDy=0;" edge="1" parent="WIyWlLk6GJQsqaUBKTNV-1" source="LHAwC66H7p6stEp5_sUE-11" target="J51_Tm1h9DYmSotQYTxs-9">
          <mxGeometry relative="1" as="geometry" />
        </mxCell>
        <mxCell id="LHAwC66H7p6stEp5_sUE-11" value="&lt;div&gt;Point&amp;nbsp;&lt;span style=&quot;background-color: initial;&quot;&gt;subsample&lt;/span&gt;&lt;/div&gt;" style="shape=parallelogram;perimeter=parallelogramPerimeter;whiteSpace=wrap;html=1;fixedSize=1;rounded=0;fillColor=#dae8fc;strokeColor=#6c8ebf;" vertex="1" parent="WIyWlLk6GJQsqaUBKTNV-1">
          <mxGeometry x="243.75" y="241" width="122.5" height="20" as="geometry" />
        </mxCell>
      </root>
    </mxGraphModel>
  </diagram>
</mxfile>
